# xmcd
#
# Track frame offsets: 
#        150
#        46161
#        83300
#        115953
#        146483
#
# Disc length: 2821 seconds
#
# Revision: 0
# Processed by: cddbd v1.5.2PL0 Copyright (c) Steve Scherf et al.
# Submitted via: ExactAudioCopy v0.95b4
#
DISCID=330b0305
DTITLE=Jandek - The Ruins of Adventure
DYEAR=2006
DGENRE=Blues
TTITLE0=The Park
TTITLE1=Bluff Brink
TTITLE2=Completely Yours
TTITLE3=Mysteries of Existence
TTITLE4=The Ruins of Adventure
EXTD=
EXTT0=
EXTT1=
EXTT2=
EXTT3=
EXTT4=
PLAYORDER=
